<svg version="1.1" id="Layer_1" xmlns="http://www.w3.org/2000/svg" xmlns:xlink="http://www.w3.org/1999/xlink" x="0px" y="0px" viewBox="0 0 67.2 61" style="enable-background:new 0 0 67.2 61;" xml:space="preserve">
 <style type="text/css">
  .st0{fill-rule:evenodd;clip-rule:evenodd;fill:#0063A3;}
	.st1{fill:#DC2F34;}
 </style>
 <g>
  <path class="st0" d="M53.2,41.1c0.4-1.5,0.7-3,0.8-4.5H43.4c-3,6-9.2,10.2-16.4,10.2c-10.1,0-18.3-8.2-18.3-18.3
		c0-10.1,8.2-18.3,18.3-18.3c8.2,0,15.1,5.4,17.5,12.9h7.4C47.7,13.5,38.1,6.8,27,6.8c-12.9,0-23.7,9-26.4,21
		c-0.2,0.9-0.3,2.3-0.4,3.1c0,1.3,0.2,3.1,0.7,4.2c3.8,9.2,12.9,15.7,23.5,15.7c5.3,0,10.2-1.6,14.2-4.3c0,0,3.7-2.2,7.4-3.7
		C49.7,41.3,53.2,41.1,53.2,41.1 M1.1,40.5c-0.4-1.4-1-3.2-1.1-4.8c4.1,9.8,13.8,16.7,25,16.7c5.4,0,10.5-1.6,14.7-4.3
		c0,0,3-1.7,5.9-2.6c2.9-0.9,6.4-1.2,6.4-1.2c-0.7,1.6-1.5,3.1-2.5,4.6c0,0-2,0-4.3,0.7c-2.1,0.6-6.5,2.7-6.5,2.7
		c-3.9,2.2-8.5,3.5-13.3,3.5C14.8,55.7,5.5,49.5,1.1,40.5 M2.1,44.4C6.2,54.1,15.8,61,27,61c8.1,0,15.4-3.6,20.4-9.2
		c0,0-1.7,0-3.9,0.5c-2.2,0.6-4,1.5-4,1.5c-4.1,2.2-8.7,3.4-13.6,3.4C16,57.1,7.2,52.1,2.1,44.4">
  </path>
  <path class="st1" d="M41.9,36.6c-2.9,5.2-8.5,8.8-14.9,8.8c-9.4,0-16.9-7.6-16.9-16.9c0-8,5.6-14.8,13.1-16.5l2.1-12h3.4l2.1,12
		c5.7,1.3,10.4,5.6,12.3,11.1h-3.6c-1.5-3.4-4.4-6.1-8-7.4l3.2,18.2l1.5-8.1h3.7l-2,10.9H41.9 M22.6,15.7c-5.3,1.8-9.1,6.9-9.1,12.8
		C13.5,35.9,19.6,42,27,42c4.4,0,8.4-2.1,10.8-5.4l-6.8,0L27,14.9l-3.8,21.7l-4.3,0L22.6,15.7z M52.5,28.4L52,31h2.6l0.5-2.6H52.5z
		 M50.2,25.7h8.2l-1.5,8.2h-8.2L50.2,25.7z M43.3,28.4L42.8,31h2.6l0.5-2.6H43.3z M41,25.7h8.2l-1.5,8.2h-8.2L41,25.7z M66.2,31
		l-0.5,2.9H58l1.5-8.2h7.7l-0.5,2.7h-4.9L61.3,31H66.2z">
  </path>
 </g>
</svg>