<svg width="206" height="44" xmlns="http://www.w3.org/2000/svg" xmlns:xlink="http://www.w3.org/1999/xlink" xml:space="preserve" overflow="hidden"><g transform="translate(-383 -445)"><path d="M60.8254 85.9758C60.8254 97.5603 51.5889 106.482 39.8484 106.482 28.5787 106.482 19.3422 97.0895 19.4982 85.8198 19.4982 74.3941 28.8906 65.3136 40.6311 65.3136 51.7449 65.4696 60.8254 74.706 60.8254 85.9758ZM37.8151 87.856C39.0686 87.3852 39.6924 87.856 40.3192 88.6387 41.2579 89.8922 42.0406 91.1427 42.9792 92.3962 43.7619 93.6497 45.0154 94.4324 46.4219 94.7443 49.8647 95.683 53.7782 93.4908 54.8757 90.0481 55.9703 86.1346 53.937 82.2211 50.0235 81.2824 48.9289 80.9705 48.6141 80.4997 48.1462 79.5611 46.8927 76.1183 43.9208 74.0822 40.1632 73.9262 36.4057 73.9262 33.4308 75.9624 32.1803 79.4051 31.8683 80.4997 31.3976 80.9705 30.3029 81.2824 27.4841 82.0651 25.7627 83.9425 25.4508 86.9173 24.98 89.7362 25.9215 92.0843 28.4256 93.8057 30.7737 95.527 33.2778 95.527 35.9407 94.2764 37.818 92.867 37.818 92.867 39.2275 94.9032 39.5394 95.2151 39.6982 95.5299 40.0102 95.8418 41.5756 97.4072 43.7677 97.4072 45.4891 95.6859 44.7064 95.5299 43.7677 95.8418 43.141 95.0591 41.4138 92.8641 39.6924 90.36 37.8151 87.856Z" fill="#E40E28" transform="matrix(1 0 0 1.00223 364.585 381.387)"/><path d="M71.1564 82.0623C73.3486 79.2434 75.8526 76.5834 77.8888 73.7645 78.9834 72.1991 80.3929 72.355 81.9583 72.511 83.0529 72.667 82.2702 73.2937 82.1142 73.6056 80.5489 75.6418 78.9834 77.5191 77.2621 79.3965 76.6353 80.1792 76.6353 80.8059 77.1061 81.5886 79.2983 85.1902 81.3315 88.7889 83.5237 92.3904 80.3929 93.0172 80.2369 93.0172 78.6715 90.3543 77.418 88.1621 76.1674 86.1288 75.0699 83.9367 74.5992 83.154 74.4432 82.998 73.6605 83.7807 71.6243 85.8169 70.3737 88.0062 71.0005 90.981 71.1564 92.0756 71.1564 92.7024 69.591 92.7024 68.0256 92.7024 68.0256 91.9197 68.0256 90.825 68.0256 85.3461 68.0256 79.8672 68.0256 74.2324 68.0256 72.9789 68.0256 72.355 69.591 72.355 71.1564 72.355 71.1564 73.1377 71.1564 74.2324 71.1564 76.7364 71.1564 79.3993 71.1564 81.9034 70.8445 81.9063 71.0005 81.9063 71.1564 82.0623Z" fill="#3B3C3D" transform="matrix(1 0 0 1.00223 364.585 381.387)"/><path d="M112.325 91.9254C111.698 92.0814 111.071 92.3962 110.447 92.3962 107.161 93.0229 104.813 91.4576 104.186 88.1708 103.874 86.6054 103.874 85.196 104.03 83.6305 104.342 79.717 106.222 78.1516 110.291 78.1516 111.701 78.1516 112.951 78.1516 114.361 78.1516 115.3 78.1516 115.614 78.4636 115.614 79.4051 115.614 84.2573 115.614 89.1095 115.614 93.9616 115.614 96.4657 114.52 98.3459 112.013 99.2846 109.506 100.223 107.161 99.9113 105.124 98.1899 104.654 97.878 104.342 97.4072 104.969 96.9365 105.595 96.4657 105.751 95.3711 106.846 95.9978 107.317 96.3097 107.785 96.7805 108.255 96.9365 111.23 97.7163 112.951 95.5241 112.325 91.9254ZM112.64 83.9425 112.64 83.9425C112.64 83.1598 112.64 82.3771 112.64 81.5944 112.64 80.9676 112.484 80.8117 111.857 80.8117 108.57 80.3409 107.161 81.4384 107.005 84.7252 107.005 85.6638 107.005 86.6025 107.161 87.544 107.473 88.9535 108.255 89.8922 109.821 89.8922 111.386 89.8922 112.169 88.9535 112.481 87.544 112.64 86.2906 112.64 85.1931 112.64 83.9425Z" fill="#3B3C3D" transform="matrix(1 0 0 1.00223 364.585 381.387)"/><path d="M220.646 79.0874C220.646 77.0512 220.646 75.3299 220.646 73.4526 220.646 72.1991 221.273 72.3579 222.056 72.3579 222.839 72.3579 223.621 72.202 223.621 73.4526 223.621 79.4022 223.621 85.349 223.621 91.2987 223.621 92.2374 223.309 92.5522 222.368 92.5522 220.491 92.5522 218.766 92.5522 216.889 92.5522 214.229 92.5522 212.349 90.8308 212.193 88.3268 212.037 86.7613 212.037 85.04 212.193 83.4746 212.978 79.5582 215.794 77.9928 220.646 79.0874ZM220.646 86.6025 220.646 86.6025C220.491 85.6638 220.646 84.7252 220.491 83.7836 220.335 82.3742 219.237 81.4355 217.83 81.4355 216.424 81.4355 215.326 82.2182 215.17 83.7836 215.014 84.7223 215.014 85.6609 215.014 86.6025 215.014 89.2625 215.797 89.5773 218.928 89.7333 221.588 89.8893 220.181 87.856 220.493 86.9144 220.646 86.7585 220.646 86.6025 220.646 86.6025Z" fill="#3B3C3D" transform="matrix(1 0 0 1.00223 364.585 381.387)"/><path d="M167.27 82.533C167.426 83.7865 167.426 85.0371 167.582 86.1346 167.894 88.3268 169.147 89.5773 171.183 89.7362 172.905 89.8922 174.785 88.9535 175.409 87.2321 176.035 85.3548 177.286 85.9786 178.384 85.9786 179.166 85.9786 178.854 86.6054 178.695 87.0733 178.069 90.36 175.094 92.7081 171.339 92.7081 167.738 92.5522 164.922 90.2041 164.451 86.9173 164.139 83.9425 164.139 80.9676 164.451 77.9957 164.763 74.7089 167.738 72.3608 171.495 72.2048 175.097 72.2048 178.069 74.397 178.539 77.8397 178.695 78.3105 178.851 79.0932 178.069 78.9343 177.13 78.7784 176.033 79.5611 175.565 78.1516 175.253 77.213 174.782 76.4303 173.999 75.8035 171.651 73.9262 168.05 75.3328 167.582 78.3076 167.27 79.7142 167.27 81.1236 167.27 82.533Z" fill="#3B3C3D" transform="matrix(1 0 0 1.00223 364.585 381.387)"/><path d="M210.315 85.5079C210.315 87.3852 210.315 89.4214 210.315 91.2987 210.315 92.2374 210.159 92.7081 209.062 92.5522 207.341 92.3962 205.46 92.5522 203.739 92.5522 200.92 92.5522 198.887 90.6749 198.731 87.856 198.575 85.0371 198.731 82.0651 198.731 79.2463 198.731 77.8368 199.67 78.3076 200.296 78.3076 200.923 78.3076 201.706 77.9957 201.706 79.2463 201.706 81.5944 201.706 84.0984 201.706 86.4465 201.706 89.1066 204.21 90.672 206.714 89.5773 207.341 89.2654 207.185 88.6387 207.185 88.1679 207.185 85.349 207.341 82.3771 207.185 79.5582 207.185 78.3047 207.655 78.1488 208.75 78.1488 209.689 78.1488 210.471 78.1488 210.315 79.5582 210.315 81.5944 210.315 83.6277 210.315 85.5079Z" fill="#3B3C3D" transform="matrix(1 0 0 1.00223 364.585 381.387)"/><path d="M185.269 85.349C185.269 82.3742 185.896 79.8701 188.871 78.6166 192.472 77.2072 196.071 79.2434 196.854 83.0009 197.165 84.4104 197.165 85.9758 197.009 87.3852 196.539 90.9868 194.191 92.8641 191.06 92.8641 187.773 92.8641 185.581 90.516 185.269 87.0733 185.269 86.4465 185.269 85.8198 185.269 85.349ZM194.349 85.5079C194.349 84.7252 194.193 84.0984 194.193 83.4717 193.882 81.9063 192.94 81.1236 191.375 80.9676 189.809 80.9676 188.871 81.7503 188.556 83.3157 188.241 84.8811 188.244 86.2906 188.556 87.856 188.868 89.4214 189.965 90.2041 191.375 90.0481 192.784 90.0481 193.723 89.1095 194.035 87.7 194.193 86.9144 194.193 86.1317 194.349 85.5079Z" fill="#3B3C3D" transform="matrix(1 0 0 1.00223 364.585 381.387)"/><path d="M141.441 85.8198C141.285 89.8893 139.719 92.0814 136.588 92.7081 135.65 92.8641 134.711 92.8641 133.77 92.5522 129.856 91.4576 128.761 87.2292 129.856 82.3771 130.639 79.0903 133.77 77.5249 137.056 78.3076 139.875 79.0874 141.441 81.7503 141.441 85.8198ZM138.31 85.6638C138.31 84.7252 138.31 83.7865 137.998 82.845 137.527 81.4355 136.588 80.8088 135.179 80.9676 133.926 80.9676 132.987 81.7503 132.675 83.0038 132.204 84.7252 132.204 86.4465 132.675 88.1708 132.987 89.4243 133.928 90.0481 135.335 90.0481 136.588 90.0481 137.527 89.4214 137.995 88.1708 138.31 87.3852 138.31 86.4465 138.31 85.6638Z" fill="#3B3C3D" transform="matrix(1 0 0 1.00223 364.585 381.387)"/><path d="M122.812 78.1488C124.221 78.1488 125.472 78.4607 126.725 79.2434 127.196 79.5553 127.979 79.8701 127.352 80.4969 126.725 81.1236 126.413 82.3742 125.16 81.5915 124.377 81.1207 123.439 80.8088 122.5 80.8088 121.717 80.8088 121.09 80.9647 120.934 81.9034 120.778 82.6861 121.246 83.3128 122.029 83.4688 123.124 83.9396 124.377 84.2515 125.472 84.5634 127.508 85.3461 128.447 86.5996 128.447 88.321 128.447 90.0423 127.352 91.6077 125.472 92.2345 123.124 93.0172 120.776 92.7053 118.739 91.4518 118.269 91.1398 117.174 90.6691 117.801 90.0423 118.428 89.4156 119.054 87.8502 120.461 89.1037 121.555 90.0423 122.809 90.1983 124.062 90.0423 124.845 89.8864 125.316 89.5716 125.316 88.7889 125.316 88.1621 125.004 87.6942 124.377 87.3794 123.439 87.0675 122.341 86.7527 121.402 86.4408 118.428 85.5021 117.333 84.0927 117.645 81.7446 117.96 79.5582 119.996 78.1488 122.812 78.1488Z" fill="#3B3C3D" transform="matrix(1 0 0 1.00223 364.585 381.387)"/><path d="M101.838 85.5079C101.838 87.544 101.838 89.4214 101.838 91.4576 101.838 92.867 101.055 92.5522 100.272 92.5522 99.4896 92.5522 98.8629 92.5522 98.8629 91.4576 99.0188 88.4827 98.8629 85.5079 98.8629 82.5359 98.8629 81.5973 98.551 81.2824 97.6094 81.2824 93.8519 81.2824 93.2251 81.7532 93.2251 85.5079 93.2251 87.544 93.2251 89.5773 93.2251 91.6135 93.2251 92.867 92.4424 92.7081 91.6597 92.7081 90.877 92.7081 90.0943 92.8641 90.2503 91.6135 90.4062 88.7946 90.2503 85.8227 90.2503 83.0038 90.4062 80.4997 92.2865 78.6195 94.7905 78.4636 96.6679 78.4636 98.704 78.4636 100.581 78.4636 101.52 78.4636 101.676 78.7755 101.676 79.5582 101.838 81.4355 101.838 83.4717 101.838 85.5079Z" fill="#3B3C3D" transform="matrix(1 0 0 1.00223 364.585 381.387)"/><path d="M143.945 86.6025C143.945 85.5079 143.945 84.2544 143.945 83.1598 143.945 82.2211 144.571 80.8117 142.691 80.8117 142.064 80.8117 142.379 79.873 142.379 79.4022 142.379 79.0903 142.223 78.4636 142.85 78.4636 144.26 78.6195 143.945 77.6809 144.104 76.8982 144.26 73.6114 145.825 72.202 149.112 72.3579 150.206 72.3579 150.206 72.8287 150.206 73.6114 150.206 74.3941 150.206 75.0208 149.112 74.8649 147.858 74.7089 147.076 75.0208 147.076 76.5862 147.076 77.8397 147.231 78.6224 148.797 78.3076 149.891 78.1516 150.05 78.7784 150.05 79.5611 150.05 80.4997 149.738 80.8146 148.797 80.6557 147.231 80.3438 147.076 81.1265 147.076 82.3771 147.076 85.196 147.076 88.1679 147.076 90.9868 147.076 92.3962 146.449 92.2402 145.51 92.3962 144.415 92.3962 143.945 92.2402 143.945 90.9868 144.101 89.7333 143.945 88.1679 143.945 86.6025Z" fill="#3B3C3D" transform="matrix(1 0 0 1.00223 364.585 381.387)"/><path d="M156.78 92.5522C154.12 92.5522 152.71 91.2987 152.554 88.6387 152.554 86.4465 152.554 84.2544 152.554 81.9063 152.554 81.2796 152.554 80.6528 151.616 80.8117 150.677 80.9676 150.833 80.1849 150.833 79.5582 150.833 79.0874 150.521 78.1488 151.46 78.3047 152.554 78.3047 152.398 77.678 152.398 77.0512 152.398 76.5805 152.398 76.1126 152.398 75.6418 152.242 74.3883 152.71 74.0764 153.964 74.0764 155.217 74.0764 155.529 74.3883 155.373 75.6418 155.373 76.1126 155.373 76.4245 155.373 76.8953 155.217 77.9899 155.529 78.6166 156.783 78.3047 157.721 78.1488 158.348 78.3047 158.348 79.5582 158.348 80.8117 157.721 80.9676 156.783 80.8117 155.688 80.6557 155.373 81.1236 155.373 82.2211 155.529 84.2573 155.373 86.1346 155.373 88.1708 155.373 89.1095 155.685 89.8922 156.627 89.8922 158.192 89.7362 158.192 90.5189 158.192 91.6135 158.345 93.176 157.095 92.2374 156.78 92.5522Z" fill="#3B3C3D" transform="matrix(1 0 0 1.00223 364.585 381.387)"/><path d="M180.576 82.2182C180.576 79.3993 180.732 76.4274 180.576 73.6085 180.576 72.1991 181.202 72.355 182.141 72.355 183.236 72.355 183.551 72.511 183.551 73.6085 183.551 79.3993 183.551 85.349 183.551 91.1398 183.551 92.2345 183.239 92.5493 182.141 92.3933 181.202 92.3933 180.42 92.3933 180.576 91.1398 180.732 88.3239 180.576 85.349 180.576 82.2182Z" fill="#3B3C3D" transform="matrix(1 0 0 1.00223 364.585 381.387)"/><path d="M85.245 85.349C85.245 83.3128 85.245 81.4355 85.245 79.3993 85.245 78.3047 85.8718 78.3047 86.4985 78.4607 87.1253 78.6166 88.2199 77.9899 88.2199 79.3993 88.2199 83.4688 88.2199 87.5383 88.2199 91.7666 88.2199 93.176 87.1253 92.5493 86.4985 92.7053 85.7158 92.8612 85.245 92.7053 85.245 91.6106 85.245 89.4214 85.245 87.3852 85.245 85.349Z" fill="#3B3C3D" transform="matrix(1 0 0 1.00223 364.585 381.387)"/><path d="M86.6545 75.3328C85.245 75.8035 85.245 74.862 85.245 73.7674 85.0891 72.3579 85.8718 72.3579 86.9664 72.3579 88.2199 72.202 88.3758 72.8287 88.3758 73.9233 88.3758 75.1768 87.7491 75.6447 86.6545 75.3328Z" fill="#3B3C3D" transform="matrix(1 0 0 1.00223 364.585 381.387)"/><path d="M34.8403 84.4104C34.2135 81.1236 34.9962 78.7755 37.1884 77.522 39.2246 76.2685 41.7286 76.4274 43.606 77.9928 45.4833 79.5582 46.11 81.7503 45.3273 83.9425 45.9541 84.4132 46.5808 83.9425 47.2046 83.7865 49.5527 83.3157 51.7449 84.8811 52.0568 87.2292 52.3687 89.5773 50.9622 91.6135 48.6141 91.9254 47.2046 92.0814 46.11 91.7695 45.1714 90.516 44.3887 89.5773 43.7619 88.4798 42.9792 87.5412 41.7257 85.9758 39.8484 85.505 38.283 86.7585 37.5003 87.2292 37.0295 87.2292 36.2468 86.6025 36.2468 89.7333 35.3082 91.2987 33.272 91.7695 31.5506 92.2402 29.6704 91.6135 28.5758 90.0481 27.6371 88.6387 27.7931 86.4465 28.8877 85.196 30.6149 83.4717 32.1803 83.3157 34.8403 84.4104Z" fill="#E40E28" transform="matrix(1 0 0 1.00223 364.585 381.387)"/></g></svg>